<svg width="16" height="16" viewBox="0 0 16 16" fill="none" xmlns="http://www.w3.org/2000/svg">
<path fill-rule="evenodd" clip-rule="evenodd" d="M8.47141 3.75696C9.51281 2.71556 11.2012 2.71556 12.2426 3.75696C13.2841 4.79841 13.2839 6.48696 12.2425 7.52831L10.8284 8.94241C10.5681 9.20276 10.146 9.20276 9.88563 8.94241C9.62528 8.68206 9.62528 8.25995 9.88563 7.9996L11.2997 6.5855C11.8205 6.06475 11.8205 5.22042 11.2998 4.69977C10.7791 4.17907 9.93492 4.17907 9.41422 4.69977L8.00001 6.11398C7.73966 6.37433 7.31755 6.37433 7.0572 6.11398C6.79685 5.85363 6.79685 5.43152 7.0572 5.17117L8.47141 3.75696ZM10.357 5.64259C10.6174 5.90294 10.6174 6.32505 10.357 6.5854L6.58577 10.3566C6.32542 10.617 5.90331 10.617 5.64296 10.3566C5.38261 10.0963 5.38261 9.67417 5.64296 9.41382L9.41419 5.64259C9.67454 5.38224 10.0967 5.38224 10.357 5.64259ZM6.11439 7.05679C6.37474 7.31714 6.37474 7.73925 6.11439 7.9996L4.70018 9.41382C4.17948 9.93451 4.17948 10.7787 4.70018 11.2994C5.22082 11.8201 6.06516 11.8201 6.58591 11.2993L8.00001 9.88522C8.26036 9.62487 8.68247 9.62487 8.94282 9.88522C9.20317 10.1456 9.20317 10.5677 8.94282 10.828L7.52872 12.2421C6.48737 13.2835 4.79882 13.2837 3.75737 12.2422C2.71597 11.2008 2.71597 9.5124 3.75737 8.47101L5.17158 7.05679C5.43193 6.79644 5.85404 6.79644 6.11439 7.05679Z" fill="#777E91"/>
</svg>
