<svg width="16" height="16" viewBox="0 0 16 16" fill="none" xmlns="http://www.w3.org/2000/svg">
<path fill-rule="evenodd" clip-rule="evenodd" d="M8.00004 13.3333C10.9456 13.3333 13.3334 10.9455 13.3334 8C13.3334 5.05448 10.9456 2.66666 8.00004 2.66666C5.05452 2.66666 2.66671 5.05448 2.66671 8C2.66671 10.9455 5.05452 13.3333 8.00004 13.3333ZM8.00004 14.6667C11.6819 14.6667 14.6667 11.6819 14.6667 8C14.6667 4.3181 11.6819 1.33333 8.00004 1.33333C4.31814 1.33333 1.33337 4.3181 1.33337 8C1.33337 11.6819 4.31814 14.6667 8.00004 14.6667Z" fill="#F90430"/>
<path fill-rule="evenodd" clip-rule="evenodd" d="M8.00004 4.66667C7.63185 4.66667 7.33337 4.96515 7.33337 5.33334C7.33337 5.70153 7.63185 6.00001 8.00004 6.00001C8.36823 6.00001 8.66671 5.70153 8.66671 5.33334C8.66671 4.96515 8.36823 4.66667 8.00004 4.66667ZM8.00004 7.33334C7.63185 7.33334 7.33337 7.63182 7.33337 8V10.6667C7.33337 11.0349 7.63185 11.3333 8.00004 11.3333C8.36823 11.3333 8.66671 11.0349 8.66671 10.6667V8C8.66671 7.63182 8.36823 7.33334 8.00004 7.33334Z" fill="#F90430"/>
</svg>
